<svg width="26" height="20" viewBox="0 0 26 20" fill="none" xmlns="http://www.w3.org/2000/svg">
<path d="M23.8745 17.3544L24.7273 18.2033V17V5.70585V4.71075L23.9288 5.30468L13.1863 13.2958C13.0794 13.3647 12.9998 13.3823 12.9409 13.3823C12.8822 13.3823 12.8029 13.3648 12.6965 13.2965L2.07327 5.30627L1.27273 4.70414V5.70585V17V18.2033L2.12548 17.3544L6.79367 12.7073C6.95314 12.5485 7.1696 12.5485 7.32907 12.7073C7.48728 12.8648 7.48728 13.0764 7.32907 13.2339L2.66087 17.8809L1.80263 18.7353H3.01362H22.9864H24.1974L23.3391 17.8809L18.6709 13.2339C18.5127 13.0764 18.5127 12.8648 18.6709 12.7073C18.8304 12.5485 19.0469 12.5485 19.2063 12.7073L23.8745 17.3544ZM24.7273 1.76471V1.26471H24.2273H1.77273H1.27273V1.76471V3.4706V3.72102L1.47326 3.871L12.6415 12.2239L12.9394 12.4467L13.2384 12.2254L24.5247 3.87251L24.7273 3.7226V3.4706V1.76471ZM1.77273 0.5H24.2273C24.9578 0.5 25.5 1.04298 25.5 1.76471V18.2353C25.5 18.957 24.9578 19.5 24.2273 19.5H1.77273C1.04218 19.5 0.5 18.957 0.5 18.2353V1.76471C0.5 1.04298 1.04218 0.5 1.77273 0.5Z" />
</svg>
