<svg width="26" height="20" fill="none" xmlns="http://www.w3.org/2000/svg"><path d="M23.875 17.354l.852.85V4.71l-.798.594-10.743 7.99a.452.452 0 01-.245.087.452.452 0 01-.245-.085L2.074 5.306l-.8-.603v13.499l.852-.849 4.669-4.647a.36.36 0 01.535 0c.158.158.158.37 0 .527L2.661 17.88l-.858.854h22.394l-.858-.854-4.668-4.647c-.158-.158-.158-.37 0-.527a.36.36 0 01.535 0l4.669 4.647zm.852-15.59v-.5H1.273v2.457l.2.15 11.169 8.353.297.223.3-.222 11.286-8.352.202-.15V1.765zM1.773.5h22.454c.73 0 1.273.543 1.273 1.265v16.47c0 .722-.542 1.265-1.273 1.265H1.773C1.043 19.5.5 18.957.5 18.235V1.765C.5 1.043 1.042.5 1.773.5z"/></svg>